<?xml version="1.0" encoding="UTF-8"?>
<svg width="560" height="160" fill="none" version="1.1" viewBox="0 0 560 160" xmlns="http://www.w3.org/2000/svg">
  <g fill="#000">
    <path d="m45 35h33.8c9.95 0 17.7 1.99 23.1 5.98 5.46 3.99 8.2 9.71 8.2 17.2 0 4.28-0.979 7.99-2.94 11.1-1.96 3.15-4.85 5.64-8.69 7.49 5.3 1.76 9.36 4.55 12.2 8.37 2.82 3.82 4.22 8.46 4.22 13.9 0 5.37-1.37 9.99-4.1 13.8-2.73 3.86-6.63 6.84-11.7 8.94-5.06 2.1-11.1 3.15-18.2 3.15h-35.9zm-45 125h160v-160h-160zm77.1-110c9.71 0 14.6 3.57 14.6 10.7 0 3.69-1.24 6.57-3.73 8.62-2.49 2.06-6.1 3.08-10.8 3.08h-13.8v-22.4zm2.32 36.5h-16.2v24.3h15.9c5.46 0 9.67-1.03 12.6-3.08 2.94-2.06 4.41-5.01 4.41-8.87 0-8.22-5.59-12.3-16.8-12.3z"/>
    <path d="m245 35h33.8c9.95 0 17.7 1.99 23.1 5.98 5.46 3.99 8.2 9.71 8.2 17.2 0 4.28-0.979 7.99-2.94 11.1-1.96 3.15-4.86 5.64-8.69 7.49 5.3 1.76 9.36 4.55 12.2 8.37 2.82 3.82 4.22 8.46 4.22 13.9 0 5.37-1.37 9.99-4.1 13.8-2.73 3.86-6.63 6.84-11.7 8.94-5.06 2.1-11.1 3.15-18.2 3.15h-35.9zm-45 125h160v-160h-160zm77.1-110c9.71 0 14.6 3.57 14.6 10.7 0 3.69-1.24 6.57-3.73 8.62-2.49 2.06-6.1 3.08-10.8 3.08h-13.8v-22.4zm2.32 36.5h-16.2v24.3h15.9c5.46 0 9.67-1.03 12.6-3.08 2.94-2.06 4.41-5.01 4.41-8.87 0-8.22-5.59-12.3-16.8-12.3z"/>
    <path d="m502 124c4.91-1.19 9.23-2.82 13-4.87v-17.1c-7.87 4.85-16.5 7.28-25.8 7.28-6.1 0-11.3-1.15-15.6-3.45-4.28-2.3-7.54-5.65-9.78-10.1-2.25-4.4-3.37-9.73-3.37-16 0-6.25 1.16-11.6 3.49-15.9 2.33-4.36 5.67-7.69 10-9.99 4.36-2.3 9.63-3.45 15.8-3.45 4.49 0 8.77 0.598 12.8 1.79 4.06 1.19 7.83 2.94 11.3 5.24v-17.5c-3.81-1.97-7.94-3.47-12.4-4.5-4.45-1.03-9.17-1.54-14.2-1.54-7.2 0-13.7 1.07-19.5 3.21s-10.8 5.22-14.9 9.25c-4.15 4.03-7.33 8.86-9.53 14.5-2.2 5.63-3.3 11.9-3.3 18.9 0 7.16 1.06 13.6 3.18 19.3 2.12 5.72 5.16 10.5 9.15 14.5 3.98 3.95 8.85 6.97 14.6 9.07 5.76 2.1 12.2 3.15 19.4 3.15 5.42 0 10.6-0.598 15.5-1.79zm58 35.8h-160v-160h160z"/>
  </g>
</svg>
